<svg width="600" height="400" xmlns="http://www.w3.org/2000/svg">
  <defs>
    <linearGradient id="grad1" x1="0%" y1="0%" x2="100%" y2="100%">
      <stop offset="0%" style="stop-color:#ffb6c1;stop-opacity:0.8" />
      <stop offset="100%" style="stop-color:#ff758f;stop-opacity:0.8" />
    </linearGradient>
  </defs>
  
  <!-- Fundo -->
  <rect width="600" height="400" rx="20" ry="20" fill="#f8f9fa" />
  
  <!-- Elementos decorativos -->
  <circle cx="150" cy="100" r="80" fill="url(#grad1)" opacity="0.7"/>
  <circle cx="450" cy="300" r="100" fill="url(#grad1)" opacity="0.5"/>
  
  <!-- Ícones representando decoração de festas -->
  <!-- Bolo -->
  <rect x="250" y="150" width="100" height="120" rx="10" ry="10" fill="#ffb6c1" />
  <rect x="240" y="140" width="120" height="20" rx="5" ry="5" fill="#ff758f" />
  <rect x="270" y="100" width="60" height="40" rx="5" ry="5" fill="#ffb6c1" />
  <circle cx="300" cy="90" r="10" fill="#ff758f" />
  
  <!-- Balões -->
  <circle cx="150" cy="200" r="20" fill="#ffb6c1" />
  <path d="M150,220 L145,250" stroke="#ff758f" stroke-width="2" fill="none"/>
  
  <circle cx="180" cy="180" r="15" fill="#ff758f" />
  <path d="M180,195 L175,225" stroke="#ffb6c1" stroke-width="2" fill="none"/>
  
  <circle cx="120" cy="190" r="18" fill="#ffb6c1" />
  <path d="M120,208 L115,238" stroke="#ff758f" stroke-width="2" fill="none"/>
  
  <!-- Presentes -->
  <rect x="400" y="200" width="40" height="40" fill="#ffb6c1" />
  <rect x="415" y="180" width="10" height="60" fill="#ff758f" />
  <rect x="390" y="215" width="60" height="10" fill="#ff758f" />
  
  <rect x="460" y="220" width="30" height="30" fill="#ffb6c1" />
  <rect x="470" y="210" width="10" height="50" fill="#ff758f" />
  <rect x="450" y="230" width="50" height="10" fill="#ff758f" />
</svg>