<svg width="1200" height="600" xmlns="http://www.w3.org/2000/svg">
  <defs>
    <linearGradient id="grad1" x1="0%" y1="0%" x2="100%" y2="100%">
      <stop offset="0%" style="stop-color:#ffb6c1;stop-opacity:1" />
      <stop offset="100%" style="stop-color:#ff758f;stop-opacity:1" />
    </linearGradient>
    <pattern id="pattern1" width="20" height="20" patternUnits="userSpaceOnUse">
      <circle cx="10" cy="10" r="2" fill="#fff" fill-opacity="0.2"/>
    </pattern>
  </defs>
  <rect width="100%" height="100%" fill="url(#grad1)"/>
  <rect width="100%" height="100%" fill="url(#pattern1)"/>
  
  <!-- Elementos decorativos -->
  <circle cx="200" cy="150" r="80" fill="#fff" fill-opacity="0.1"/>
  <circle cx="1000" cy="450" r="100" fill="#fff" fill-opacity="0.1"/>
  <circle cx="600" cy="100" r="50" fill="#fff" fill-opacity="0.1"/>
  <circle cx="400" cy="500" r="70" fill="#fff" fill-opacity="0.1"/>
  <circle cx="900" cy="200" r="60" fill="#fff" fill-opacity="0.1"/>
  
  <!-- Elementos festivos -->
  <path d="M100,300 Q150,200 200,300 T300,300" stroke="#fff" stroke-width="3" fill="none" stroke-opacity="0.3"/>
  <path d="M700,200 Q750,100 800,200 T900,200" stroke="#fff" stroke-width="3" fill="none" stroke-opacity="0.3"/>
  <path d="M400,400 Q450,300 500,400 T600,400" stroke="#fff" stroke-width="3" fill="none" stroke-opacity="0.3"/>
  
  <!-- Balões -->
  <circle cx="150" cy="100" r="20" fill="#fff" fill-opacity="0.4"/>
  <path d="M150,120 L145,150" stroke="#fff" stroke-width="2" fill="none"/>
  
  <circle cx="850" cy="150" r="25" fill="#fff" fill-opacity="0.4"/>
  <path d="M850,175 L845,205" stroke="#fff" stroke-width="2" fill="none"/>
  
  <circle cx="500" cy="80" r="15" fill="#fff" fill-opacity="0.4"/>
  <path d="M500,95 L495,125" stroke="#fff" stroke-width="2" fill="none"/>
</svg>