<svg xmlns="http://www.w3.org/2000/svg" xmlns:xlink="http://www.w3.org/1999/xlink" width="191" zoomAndPan="magnify" viewBox="0 0 143.25 156.75" height="209" preserveAspectRatio="xMidYMid meet" version="1.0"><defs><clipPath id="55282f508d"><path d="M 0 0.285156 L 142.503906 0.285156 L 142.503906 156.21875 L 0 156.21875 Z M 0 0.285156 " clip-rule="nonzero"/></clipPath><clipPath id="e04aca3121"><path d="M 66 93 L 91 93 L 91 145 L 66 145 Z M 66 93 " clip-rule="nonzero"/></clipPath><clipPath id="fa12a4d6c5"><path d="M 41.707031 0.285156 L 141.910156 34.6875 L 100.238281 156.0625 L 0.0351562 121.660156 Z M 41.707031 0.285156 " clip-rule="nonzero"/></clipPath><clipPath id="25a9562be0"><path d="M 41.707031 0.285156 L 141.910156 34.6875 L 100.238281 156.0625 L 0.0351562 121.660156 Z M 41.707031 0.285156 " clip-rule="nonzero"/></clipPath><clipPath id="2d698d5aad"><path d="M 31 78 L 49 78 L 49 133 L 31 133 Z M 31 78 " clip-rule="nonzero"/></clipPath><clipPath id="88b8f2f389"><path d="M 41.707031 0.285156 L 141.910156 34.6875 L 100.238281 156.0625 L 0.0351562 121.660156 Z M 41.707031 0.285156 " clip-rule="nonzero"/></clipPath><clipPath id="011eb40e08"><path d="M 41.707031 0.285156 L 141.910156 34.6875 L 100.238281 156.0625 L 0.0351562 121.660156 Z M 41.707031 0.285156 " clip-rule="nonzero"/></clipPath><clipPath id="fa94f1b0ea"><path d="M 81 41 L 129 41 L 129 97 L 81 97 Z M 81 41 " clip-rule="nonzero"/></clipPath><clipPath id="5834cca690"><path d="M 41.707031 0.285156 L 141.910156 34.6875 L 100.238281 156.0625 L 0.0351562 121.660156 Z M 41.707031 0.285156 " clip-rule="nonzero"/></clipPath><clipPath id="aad693ed0f"><path d="M 41.707031 0.285156 L 141.910156 34.6875 L 100.238281 156.0625 L 0.0351562 121.660156 Z M 41.707031 0.285156 " clip-rule="nonzero"/></clipPath><clipPath id="f4b9a8dc23"><path d="M 29 22 L 64 22 L 64 81 L 29 81 Z M 29 22 " clip-rule="nonzero"/></clipPath><clipPath id="2f3217b0d3"><path d="M 41.707031 0.285156 L 141.910156 34.6875 L 100.238281 156.0625 L 0.0351562 121.660156 Z M 41.707031 0.285156 " clip-rule="nonzero"/></clipPath><clipPath id="a4899cb77f"><path d="M 41.707031 0.285156 L 141.910156 34.6875 L 100.238281 156.0625 L 0.0351562 121.660156 Z M 41.707031 0.285156 " clip-rule="nonzero"/></clipPath><clipPath id="d8ddb3d93d"><path d="M 49 80 L 74 80 L 74 142 L 49 142 Z M 49 80 " clip-rule="nonzero"/></clipPath><clipPath id="43b352346b"><path d="M 41.707031 0.285156 L 141.910156 34.6875 L 100.238281 156.0625 L 0.0351562 121.660156 Z M 41.707031 0.285156 " clip-rule="nonzero"/></clipPath><clipPath id="9c40b2c531"><path d="M 41.707031 0.285156 L 141.910156 34.6875 L 100.238281 156.0625 L 0.0351562 121.660156 Z M 41.707031 0.285156 " clip-rule="nonzero"/></clipPath><clipPath id="b3e27d3d1b"><path d="M 53 17 L 109 17 L 109 84 L 53 84 Z M 53 17 " clip-rule="nonzero"/></clipPath><clipPath id="df767ba098"><path d="M 41.707031 0.285156 L 141.910156 34.6875 L 100.238281 156.0625 L 0.0351562 121.660156 Z M 41.707031 0.285156 " clip-rule="nonzero"/></clipPath><clipPath id="221173681b"><path d="M 41.707031 0.285156 L 141.910156 34.6875 L 100.238281 156.0625 L 0.0351562 121.660156 Z M 41.707031 0.285156 " clip-rule="nonzero"/></clipPath><clipPath id="7e2db1abfc"><path d="M 34 30 L 46 30 L 46 50 L 34 50 Z M 34 30 " clip-rule="nonzero"/></clipPath><clipPath id="7a75c3d24e"><path d="M 41.707031 0.285156 L 141.910156 34.6875 L 100.238281 156.0625 L 0.0351562 121.660156 Z M 41.707031 0.285156 " clip-rule="nonzero"/></clipPath><clipPath id="5fe66d1b18"><path d="M 41.707031 0.285156 L 141.910156 34.6875 L 100.238281 156.0625 L 0.0351562 121.660156 Z M 41.707031 0.285156 " clip-rule="nonzero"/></clipPath><clipPath id="bf4eb1b527"><path d="M 64 26 L 79 26 L 79 45 L 64 45 Z M 64 26 " clip-rule="nonzero"/></clipPath><clipPath id="8ffd7c6b6e"><path d="M 41.707031 0.285156 L 141.910156 34.6875 L 100.238281 156.0625 L 0.0351562 121.660156 Z M 41.707031 0.285156 " clip-rule="nonzero"/></clipPath><clipPath id="3cadafeb99"><path d="M 41.707031 0.285156 L 141.910156 34.6875 L 100.238281 156.0625 L 0.0351562 121.660156 Z M 41.707031 0.285156 " clip-rule="nonzero"/></clipPath></defs><g clip-path="url(#55282f508d)"><path fill="#ffffff" d="M 0 0.285156 L 142.503906 0.285156 L 142.503906 156.21875 L 0 156.21875 Z M 0 0.285156 " fill-opacity="1" fill-rule="nonzero"/></g><g clip-path="url(#e04aca3121)"><g clip-path="url(#fa12a4d6c5)"><g clip-path="url(#25a9562be0)"><path fill="#721326" d="M 68.125 144.78125 C 67.691406 144.632812 67.316406 144.308594 67.117188 143.855469 C 63.902344 136.53125 69.859375 132.820312 74.648438 129.84375 C 76.816406 128.492188 78.859375 127.21875 80.003906 125.773438 C 82.941406 122.058594 82.484375 117.617188 81.996094 112.917969 C 81.527344 108.417969 81.046875 103.769531 83.4375 99.386719 C 84.648438 97.167969 86.285156 95.214844 88.167969 93.75 C 88.90625 93.171875 89.976562 93.304688 90.554688 94.046875 C 91.132812 94.789062 91 95.855469 90.257812 96.433594 C 88.742188 97.617188 87.414062 99.203125 86.425781 101.019531 C 84.542969 104.46875 84.949219 108.402344 85.378906 112.566406 C 85.917969 117.738281 86.472656 123.085938 82.671875 127.886719 C 81.164062 129.796875 78.765625 131.289062 76.445312 132.730469 C 71.335938 135.914062 68.300781 138.085938 70.234375 142.488281 C 70.613281 143.347656 70.222656 144.351562 69.359375 144.730469 C 68.953125 144.910156 68.515625 144.914062 68.125 144.78125 Z M 68.125 144.78125 " fill-opacity="1" fill-rule="nonzero"/></g></g></g><g clip-path="url(#2d698d5aad)"><g clip-path="url(#88b8f2f389)"><g clip-path="url(#011eb40e08)"><path fill="#721326" d="M 32.417969 132.523438 C 32.027344 132.386719 31.683594 132.113281 31.472656 131.722656 C 31.027344 130.894531 31.335938 129.863281 32.160156 129.414062 C 36.390625 127.128906 35.332031 123.550781 33.253906 117.902344 C 32.308594 115.339844 31.332031 112.6875 31.316406 110.253906 C 31.265625 104.132812 34.988281 100.253906 38.589844 96.5 C 41.488281 93.480469 44.226562 90.628906 44.859375 86.746094 C 45.191406 84.707031 45.121094 82.640625 44.648438 80.773438 C 44.417969 79.863281 44.972656 78.9375 45.882812 78.707031 C 46.792969 78.480469 47.71875 79.03125 47.949219 79.941406 C 48.53125 82.253906 48.625 84.796875 48.21875 87.296875 C 47.414062 92.222656 44.175781 95.59375 41.046875 98.855469 C 37.773438 102.269531 34.683594 105.488281 34.71875 110.226562 C 34.734375 112.070312 35.566406 114.332031 36.449219 116.726562 C 38.394531 122.019531 40.820312 128.605469 33.78125 132.410156 C 33.34375 132.644531 32.851562 132.671875 32.417969 132.523438 Z M 32.417969 132.523438 " fill-opacity="1" fill-rule="nonzero"/></g></g></g><g clip-path="url(#fa94f1b0ea)"><g clip-path="url(#5834cca690)"><g clip-path="url(#aad693ed0f)"><path fill="#e19cbb" d="M 116.992188 44.273438 C 113.6875 42.394531 110.109375 41.441406 106.558594 41.324219 C 106.8125 44.199219 106.578125 47.164062 105.789062 50.113281 C 103.023438 60.472656 92.121094 75.558594 81.082031 80.5 C 81.808594 86.796875 84.027344 92.199219 88.359375 94.65625 C 99.25 100.847656 119.316406 86.09375 125.503906 75.199219 C 131.695312 64.308594 127.882812 50.460938 116.992188 44.273438 Z M 116.992188 44.273438 " fill-opacity="1" fill-rule="nonzero"/></g></g></g><g clip-path="url(#f4b9a8dc23)"><g clip-path="url(#2f3217b0d3)"><g clip-path="url(#a4899cb77f)"><path fill="#e19cbb" d="M 56.664062 36.996094 C 57.847656 32.570312 60.132812 28.734375 63.140625 25.695312 C 60.855469 24.453125 58.316406 23.589844 55.59375 23.191406 C 43.195312 21.386719 31.683594 29.972656 29.875 42.371094 C 28.070312 54.765625 34.84375 78.734375 47.238281 80.539062 C 52.175781 81.257812 57.261719 78.347656 61.707031 73.808594 C 55.609375 63.679688 54.066406 46.734375 56.664062 36.996094 Z M 56.664062 36.996094 " fill-opacity="1" fill-rule="nonzero"/></g></g></g><g clip-path="url(#d8ddb3d93d)"><g clip-path="url(#43b352346b)"><g clip-path="url(#9c40b2c531)"><path fill="#721326" d="M 56.878906 141.292969 C 56.789062 141.261719 56.699219 141.222656 56.613281 141.175781 C 50.445312 137.808594 47.960938 130.4375 50.4375 122.832031 C 51.980469 118.085938 55.695312 115.246094 59.285156 112.496094 C 63.039062 109.625 66.582031 106.910156 67.265625 102.222656 C 67.535156 100.398438 67.054688 98.035156 66.546875 95.535156 C 65.425781 90.007812 64.03125 83.128906 71.570312 80.441406 C 72.453125 80.125 73.425781 80.585938 73.742188 81.46875 C 74.058594 82.355469 73.597656 83.328125 72.710938 83.644531 C 68.183594 85.261719 68.6875 88.960938 69.882812 94.859375 C 70.425781 97.535156 70.984375 100.304688 70.632812 102.714844 C 69.75 108.769531 65.480469 112.039062 61.351562 115.199219 C 58.027344 117.742188 54.890625 120.148438 53.671875 123.886719 C 51.722656 129.882812 53.558594 135.632812 58.246094 138.1875 C 59.070312 138.640625 59.375 139.671875 58.921875 140.496094 C 58.519531 141.234375 57.648438 141.554688 56.878906 141.292969 Z M 56.878906 141.292969 " fill-opacity="1" fill-rule="nonzero"/></g></g></g><g clip-path="url(#b3e27d3d1b)"><g clip-path="url(#df767ba098)"><g clip-path="url(#221173681b)"><path fill="#721326" d="M 69.683594 83.113281 C 55.289062 78.171875 51.453125 49.917969 55.019531 36.558594 C 56.566406 30.769531 59.882812 25.773438 64.609375 22.113281 C 65.351562 21.539062 66.421875 21.675781 66.996094 22.417969 C 67.574219 23.164062 67.4375 24.230469 66.691406 24.804688 C 62.558594 28.003906 59.660156 32.371094 58.308594 37.433594 C 54.640625 51.183594 59.652344 76.9375 71.46875 80.101562 C 83.289062 83.257812 100.476562 63.421875 104.148438 49.675781 C 107.523438 37.035156 99.984375 24.007812 87.347656 20.636719 C 86.433594 20.386719 85.898438 19.460938 86.140625 18.554688 C 86.382812 17.644531 87.316406 17.105469 88.226562 17.347656 C 102.675781 21.210938 111.292969 36.101562 107.433594 50.550781 C 103.792969 64.1875 85.730469 87.433594 70.59375 83.390625 C 70.285156 83.308594 69.980469 83.214844 69.683594 83.113281 Z M 69.683594 83.113281 " fill-opacity="1" fill-rule="nonzero"/></g></g></g><g clip-path="url(#7e2db1abfc)"><g clip-path="url(#7a75c3d24e)"><g clip-path="url(#5fe66d1b18)"><path fill="#721326" d="M 35.691406 49.351562 C 35.089844 49.144531 34.628906 48.605469 34.554688 47.929688 C 33.1875 35.726562 42.511719 30.824219 42.910156 30.621094 C 43.746094 30.191406 44.773438 30.523438 45.199219 31.363281 C 45.625 32.199219 45.292969 33.21875 44.460938 33.648438 C 44.132812 33.820312 36.839844 37.757812 37.933594 47.550781 C 38.039062 48.484375 37.367188 49.328125 36.433594 49.433594 C 36.175781 49.460938 35.921875 49.429688 35.691406 49.351562 Z M 35.691406 49.351562 " fill-opacity="1" fill-rule="nonzero"/></g></g></g><g clip-path="url(#bf4eb1b527)"><g clip-path="url(#8ffd7c6b6e)"><g clip-path="url(#3cadafeb99)"><path fill="#721326" d="M 66.097656 43.988281 C 65.375 43.742188 64.886719 43.027344 64.957031 42.230469 C 66.035156 30 76.144531 27.039062 76.578125 26.917969 C 77.480469 26.667969 78.417969 27.195312 78.671875 28.101562 C 78.925781 29.003906 78.398438 29.941406 77.496094 30.195312 C 77.144531 30.296875 69.210938 32.707031 68.347656 42.53125 C 68.261719 43.464844 67.4375 44.15625 66.5 44.074219 C 66.359375 44.0625 66.226562 44.035156 66.097656 43.988281 Z M 66.097656 43.988281 " fill-opacity="1" fill-rule="nonzero"/></g></g></g></svg>